<?xml version="1.0" encoding="utf-8"?>
<!DOCTYPE svg PUBLIC "-//W3C//DTD SVG 20010904//EN" "http://www.w3.org/TR/2001/REC-SVG-20010904/DTD/svg10.dtd">
<svg version="1.0" xmlns="http://www.w3.org/2000/svg" width="36px" height="36px" viewBox="0 0 36 36" preserveAspectRatio="xMidYMid meet">
 <g fill="#555555">
  <path d="M12.3 34.9 c-7.5 -2.2 -13.3 -11.9 -11.8 -19.8 3 -16.1 24.1 -20.2 32.7 -6.3 3.1 5.1 3.1 13.3 0 18.4 -2 3.2 -7.6 7.8 -9.6 7.8 -0.3 0 -0.6 -2.9 -0.6 -6.5 0 -5.8 0.2 -6.5 2 -6.5 1.5 0 2 -0.7 2 -2.5 0 -1.8 -0.5 -2.5 -2 -2.5 -2.9 0 -2.7 -3.8 0.3 -4.2 1.4 -0.2 2.3 -1.1 2.5 -2.5 0.3 -2 -0.1 -2.3 -2.7 -2.3 -3.7 0 -7.1 3.1 -7.1 6.4 0 1.5 -0.7 2.6 -2 2.9 -1.2 0.3 -2 1.4 -2 2.6 0 1.4 0.6 2.1 2 2.1 1.8 0 2 0.7 2 7 0 7.5 0 7.5 -5.7 5.9z"/>
 </g>
</svg>