<?xml version="1.0" encoding="utf-8"?>
<!DOCTYPE svg PUBLIC "-//W3C//DTD SVG 20010904//EN" "http://www.w3.org/TR/2001/REC-SVG-20010904/DTD/svg10.dtd">
<svg version="1.0" xmlns="http://www.w3.org/2000/svg" width="36px" height="36px" viewBox="0 0 36 36" preserveAspectRatio="xMidYMid meet">
 <g fill="#555555">
  <path d="M12.3 34.9 c-7.5 -2.2 -13.3 -11.9 -11.8 -19.8 3 -16.1 24.1 -20.2 32.7 -6.3 3.1 5.1 3.1 13.3 0 18.4 -4.2 6.7 -13.2 10.1 -20.9 7.7z m13.2 -15.5 c0.9 -4.1 1.4 -7.8 1.1 -8.1 -0.5 -0.5 -7.8 1.9 -16.5 5.5 -2.6 1 -3.1 1.6 -2 2.3 2.4 1.5 5 1 10.3 -2.2 5.1 -3 5.1 -3 0.9 0.6 -3 2.5 -4.3 4.5 -4.3 6.2 0 2.2 0.2 2.4 1.6 1.3 1.2 -1.1 1.8 -1 3.2 0.3 2.9 3 4 1.9 5.7 -5.9z"/>
 </g>
</svg>