<?xml version="1.0" encoding="utf-8"?>
<!DOCTYPE svg PUBLIC "-//W3C//DTD SVG 20010904//EN" "http://www.w3.org/TR/2001/REC-SVG-20010904/DTD/svg10.dtd">
<svg version="1.0" xmlns="http://www.w3.org/2000/svg" width="36px" height="36px" viewBox="0 0 36 36" preserveAspectRatio="xMidYMid meet">
 <g fill="#555555">
  <path d="M12.3 34.9 c-7.5 -2.2 -13.3 -11.9 -11.8 -19.8 3 -16.1 24.1 -20.2 32.7 -6.3 3.1 5.1 3.1 13.3 0 18.4 -4.2 6.7 -13.2 10.1 -20.9 7.7z m8.1 -11.5 c0.6 -1.6 0.8 -1.6 2.4 0 1 0.9 3.3 1.6 5.2 1.6 3.2 0 3.2 0 1.6 -2.2 -2.8 -3.9 -2.9 -4.7 -0.7 -7.4 2.4 -3.1 2 -4.4 -1.4 -4.4 -1.7 0 -2.9 0.9 -4 3 -0.9 1.7 -2 3 -2.5 3 -0.6 0 -1 -1.3 -1 -3 0 -2.6 -0.4 -3 -2.8 -3 -2.6 0 -2.8 0.2 -2.4 3.5 0.2 1.9 0.2 3.5 -0.1 3.5 -0.3 0 -1.4 -1.6 -2.6 -3.5 -1.9 -3.2 -4.8 -4.5 -6.4 -2.9 -0.9 0.9 1.8 5.7 5.4 9.9 3.4 3.9 8.2 4.8 9.3 1.9z"/>
 </g>
</svg>